<?xml version="1.0" standalone="no"?>
<!DOCTYPE svg PUBLIC "-//W3C//DTD SVG 20010904//EN"
 "http://www.w3.org/TR/2001/REC-SVG-20010904/DTD/svg10.dtd">
<svg version="1.0" xmlns="http://www.w3.org/2000/svg"
 width="811.000000pt" height="1280.000000pt" viewBox="0 0 811.000000 1280.000000"
 preserveAspectRatio="xMidYMid meet">
<metadata>
Created by potrace 1.15, written by Peter Selinger 2001-2017
</metadata>
<g transform="translate(0.000000,1280.000000) scale(0.100000,-0.100000)"
fill="#000000" stroke="none">
<path d="M2981 12760 c12 -19 72 -98 133 -175 147 -187 207 -278 271 -410 60
-126 95 -227 127 -370 20 -89 22 -128 22 -350 0 -214 -3 -268 -22 -379 -84
-484 -295 -1037 -664 -1741 -284 -541 -538 -975 -1527 -2610 -480 -793 -812
-1356 -907 -1540 -508 -985 -548 -1909 -118 -2768 344 -686 989 -1318 1879
-1842 386 -228 949 -483 1220 -554 106 -28 125 -28 125 4 0 28 -36 74 -230
295 -373 426 -582 727 -761 1095 -148 305 -230 569 -280 900 -19 121 -19 558
0 680 35 235 81 410 178 680 202 558 494 1121 896 1725 149 224 217 320 602
860 462 647 648 930 825 1250 166 300 309 649 379 925 133 525 -110 1317 -727
2365 -321 545 -784 1208 -1202 1721 -133 163 -260 302 -219 239z"/>
<path d="M5760 8598 c0 -5 20 -53 45 -109 100 -222 130 -371 129 -639 -1 -204
-20 -353 -70 -550 -79 -308 -153 -505 -300 -800 -186 -371 -396 -702 -845
-1330 -289 -403 -501 -716 -685 -1010 -198 -315 -395 -650 -444 -753 -145
-308 -181 -630 -110 -979 76 -369 315 -803 574 -1036 37 -34 77 -62 87 -62 10
0 19 2 19 5 0 2 -22 49 -50 102 -59 117 -80 210 -80 352 0 253 96 579 280 948
177 356 345 605 825 1223 494 636 631 835 813 1180 205 390 361 805 434 1155
21 102 23 134 23 425 -1 395 -13 478 -118 800 -69 212 -138 379 -251 605 -122
245 -274 506 -276 473z"/>
<path d="M7180 7198 c0 -3 38 -80 84 -169 47 -90 99 -206 115 -256 176 -538
50 -1440 -312 -2242 -195 -434 -352 -656 -942 -1331 -449 -515 -604 -713 -765
-980 -187 -309 -313 -689 -380 -1145 -57 -386 -49 -740 18 -808 19 -18 23 -19
44 -5 13 9 61 87 107 174 107 200 190 324 326 487 185 221 559 593 970 962
503 453 765 728 1007 1055 367 497 561 960 634 1515 25 187 25 689 1 865 -58
413 -148 642 -427 1095 -51 83 -178 292 -283 465 -191 319 -197 328 -197 318z"/>
</g>
</svg>